<svg width="433" height="358" viewBox="0 0 433 358" fill="none" xmlns="http://www.w3.org/2000/svg">
<path opacity="0.1" d="M44.0052 41.7355C48.0425 17.6466 68.8926 0.00012207 93.3175 0.00012207H383C410.614 0.00012207 433 22.3859 433 50.0001V308C433 335.614 410.614 358 383 358H50.0772C19.1619 358 -4.34505 330.226 0.76502 299.736L44.0052 41.7355Z" fill="#68C9BA"/>
<path d="M401.014 94.0295C426.738 123.207 396.363 151.381 342.903 152.141C236.616 145.137 212.631 51.0074 220.664 29.9028C228.697 8.79815 252.615 8.2221 288.054 51.2151C323.493 94.2081 368.858 57.5572 401.014 94.0295Z" stroke="white" stroke-width="1.5"/>
<ellipse cx="296.634" cy="59.1502" rx="16.8481" ry="9.95569" transform="rotate(20.7184 296.634 59.1502)" stroke="white" stroke-width="1.5"/>
</svg>

