<svg width="433" height="358" viewBox="0 0 433 358" fill="none" xmlns="http://www.w3.org/2000/svg">
<path opacity="0.1" d="M44.0052 41.737C48.0425 17.6481 68.8926 0.00158691 93.3175 0.00158691H383C410.614 0.00158691 433 22.3873 433 50.0016V308.002C433 335.616 410.614 358.002 383 358.002H50.0772C19.1619 358.002 -4.34505 330.227 0.76502 299.737L44.0052 41.737Z" fill="#2D9CDB"/>
<ellipse cx="373.674" cy="306.032" rx="30.9248" ry="18.2737" transform="rotate(20.7184 373.674 306.032)" stroke="white" stroke-width="1.5"/>
<path d="M99.7256 247.712C39.1914 259.919 24.5671 195.795 65.9576 121.691C159.954 -18.8767 308.406 22.8654 331.045 50.6612C353.685 78.457 335.491 111.798 248.252 126.395C161.014 140.991 175.393 232.454 99.7256 247.712Z" stroke="white" stroke-width="1.5"/>
</svg>

